<svg width="30" height="30" viewBox="0 0 30 30" fill="none" xmlns="http://www.w3.org/2000/svg">
<path d="M15.0176 3.70972C8.14508 3.70972 2.51758 8.71097 2.51758 14.9597C2.51758 16.9247 3.07009 18.8347 4.11884 20.506C4.68259 21.4047 4.73507 22.6835 3.88507 24.4122C3.49882 25.1972 4.03009 26.1272 4.90009 26.2097C6.59634 26.371 8.02882 26.086 9.97882 25.2722C11.5313 25.8772 13.2876 26.2097 15.0176 26.2097C21.8901 26.2097 27.5176 21.2072 27.5176 14.9597C27.5176 8.71097 21.8901 3.70972 15.0176 3.70972ZM15.0176 6.20972C20.5713 6.20972 25.0176 10.1622 25.0176 14.9597C25.0176 19.7572 20.5713 23.7097 15.0176 23.7097C13.4188 23.7097 11.8763 23.3922 10.4863 22.7722C10.1651 22.6285 9.79259 22.631 9.47009 22.7722C8.32009 23.276 7.66881 23.551 6.81506 23.671C7.28756 22.0397 6.94007 20.3122 6.22882 19.1785C5.42632 17.8997 5.01758 16.4472 5.01758 14.9597C5.01758 10.1622 9.46383 6.20972 15.0176 6.20972ZM10.0176 13.7097C9.32758 13.7097 8.76758 14.2685 8.76758 14.9597C8.76758 15.6497 9.32758 16.2097 10.0176 16.2097C10.7076 16.2097 11.2676 15.6497 11.2676 14.9597C11.2676 14.2685 10.7076 13.7097 10.0176 13.7097ZM15.0176 13.7097C14.3276 13.7097 13.7676 14.2685 13.7676 14.9597C13.7676 15.6497 14.3276 16.2097 15.0176 16.2097C15.7076 16.2097 16.2676 15.6497 16.2676 14.9597C16.2676 14.2685 15.7076 13.7097 15.0176 13.7097ZM20.0176 13.7097C19.3276 13.7097 18.7676 14.2685 18.7676 14.9597C18.7676 15.6497 19.3276 16.2097 20.0176 16.2097C20.7076 16.2097 21.2676 15.6497 21.2676 14.9597C21.2676 14.2685 20.7076 13.7097 20.0176 13.7097Z" fill="#242424"/>
</svg>